<mxfile host="app.diagrams.net" agent="Mozilla/5.0 (Windows NT 10.0; Win64; x64) AppleWebKit/537.36 (KHTML, like Gecko) Chrome/138.0.0.0 Safari/537.36" version="28.0.7">
  <diagram name="Page-1" id="_wQaGOvEec-R76-n9E7L">
    <mxGraphModel dx="1213" dy="730" grid="1" gridSize="10" guides="1" tooltips="1" connect="1" arrows="1" fold="1" page="1" pageScale="1" pageWidth="1654" pageHeight="2336" math="0" shadow="0">
      <root>
        <mxCell id="0" />
        <mxCell id="1" parent="0" />
        <mxCell id="RLe8WdKOfGkBKbHAGbFs-1" value="&lt;p style=&quot;margin:0px;margin-top:4px;margin-left:10px;text-align:left;&quot;&gt;&lt;b&gt;bdd&lt;/b&gt;&amp;nbsp;TestCloud [System Structure]&lt;/p&gt;" style="html=1;shape=mxgraph.sysml.package;labelX=216.33;align=left;spacingLeft=10;overflow=fill;recursiveResize=0;strokeWidth=1;" vertex="1" parent="1">
          <mxGeometry x="110" y="20" width="1010" height="720" as="geometry" />
        </mxCell>
        <mxCell id="RLe8WdKOfGkBKbHAGbFs-4" value="" style="strokeColor=inherit;fillColor=inherit;gradientColor=inherit;align=right;html=1;verticalAlign=bottom;endArrow=none;startArrow=diamondThin;startSize=14;startFill=1;edgeStyle=none;endFill=0;labelBackgroundColor=none;rounded=0;entryX=0.75;entryY=0;entryDx=0;entryDy=0;" edge="1" parent="RLe8WdKOfGkBKbHAGbFs-1" target="RLe8WdKOfGkBKbHAGbFs-41">
          <mxGeometry x="1" relative="1" as="geometry">
            <mxPoint x="390.00142857142845" y="80" as="sourcePoint" />
            <mxPoint x="303.85857142857134" y="170" as="targetPoint" />
            <Array as="points" />
          </mxGeometry>
        </mxCell>
        <mxCell id="RLe8WdKOfGkBKbHAGbFs-5" value="1" style="resizable=0;html=1;align=left;verticalAlign=top;labelBackgroundColor=none;fontSize=10" connectable="0" vertex="1" parent="RLe8WdKOfGkBKbHAGbFs-4">
          <mxGeometry x="-1" relative="1" as="geometry" />
        </mxCell>
        <mxCell id="RLe8WdKOfGkBKbHAGbFs-6" value="" style="resizable=0;html=1;align=right;verticalAlign=top;labelBackgroundColor=none;fontSize=10" connectable="0" vertex="1" parent="RLe8WdKOfGkBKbHAGbFs-4">
          <mxGeometry x="1" relative="1" as="geometry" />
        </mxCell>
        <mxCell id="RLe8WdKOfGkBKbHAGbFs-45" value="Composition/Part1" style="edgeLabel;html=1;align=center;verticalAlign=middle;resizable=0;points=[];" vertex="1" connectable="0" parent="RLe8WdKOfGkBKbHAGbFs-4">
          <mxGeometry x="0.0803" y="4" relative="1" as="geometry">
            <mxPoint as="offset" />
          </mxGeometry>
        </mxCell>
        <mxCell id="RLe8WdKOfGkBKbHAGbFs-31" value="" style="fontStyle=1;align=center;verticalAlign=middle;childLayout=stackLayout;horizontal=1;horizontalStack=0;resizeParent=1;resizeParentMax=0;resizeLast=0;marginBottom=0;" vertex="1" parent="RLe8WdKOfGkBKbHAGbFs-1">
          <mxGeometry x="390" y="20" width="190" height="110" as="geometry" />
        </mxCell>
        <mxCell id="RLe8WdKOfGkBKbHAGbFs-32" value="Block 1" style="html=1;align=center;spacing=0;verticalAlign=middle;strokeColor=none;fillColor=none;whiteSpace=wrap;fontStyle=1;" vertex="1" parent="RLe8WdKOfGkBKbHAGbFs-31">
          <mxGeometry width="190" height="20" as="geometry" />
        </mxCell>
        <mxCell id="RLe8WdKOfGkBKbHAGbFs-33" value="" style="line;strokeWidth=0.25;fillColor=none;align=left;verticalAlign=middle;spacingTop=-1;spacingLeft=3;spacingRight=3;rotatable=0;labelPosition=right;points=[];portConstraint=eastwest;" vertex="1" parent="RLe8WdKOfGkBKbHAGbFs-31">
          <mxGeometry y="20" width="190" height="8" as="geometry" />
        </mxCell>
        <mxCell id="RLe8WdKOfGkBKbHAGbFs-34" value="TestCloud" style="html=1;align=center;spacing=0;verticalAlign=middle;strokeColor=none;fillColor=none;whiteSpace=wrap;fontSize=10;fontStyle=2;" vertex="1" parent="RLe8WdKOfGkBKbHAGbFs-31">
          <mxGeometry y="28" width="190" height="16" as="geometry" />
        </mxCell>
        <mxCell id="RLe8WdKOfGkBKbHAGbFs-35" value="1. UserInterface" style="html=1;align=left;spacing=0;spacingLeft=10;verticalAlign=middle;strokeColor=none;fillColor=none;whiteSpace=wrap;" vertex="1" parent="RLe8WdKOfGkBKbHAGbFs-31">
          <mxGeometry y="44" width="190" height="26" as="geometry" />
        </mxCell>
        <mxCell id="RLe8WdKOfGkBKbHAGbFs-36" value="2. BackendAPI&lt;div&gt;3. Database&lt;/div&gt;" style="html=1;align=left;spacing=0;spacingLeft=10;verticalAlign=middle;strokeColor=none;fillColor=none;whiteSpace=wrap;" vertex="1" parent="RLe8WdKOfGkBKbHAGbFs-31">
          <mxGeometry y="70" width="190" height="40" as="geometry" />
        </mxCell>
        <mxCell id="RLe8WdKOfGkBKbHAGbFs-40" value="" style="fontStyle=1;align=center;verticalAlign=middle;childLayout=stackLayout;horizontal=1;horizontalStack=0;resizeParent=1;resizeParentMax=0;resizeLast=0;marginBottom=0;" vertex="1" parent="RLe8WdKOfGkBKbHAGbFs-1">
          <mxGeometry x="30" y="170" width="170" height="120" as="geometry" />
        </mxCell>
        <mxCell id="RLe8WdKOfGkBKbHAGbFs-41" value="Block 2" style="html=1;align=center;spacing=0;verticalAlign=middle;strokeColor=none;fillColor=none;whiteSpace=wrap;fontStyle=1;" vertex="1" parent="RLe8WdKOfGkBKbHAGbFs-40">
          <mxGeometry width="170" height="20" as="geometry" />
        </mxCell>
        <mxCell id="RLe8WdKOfGkBKbHAGbFs-42" value="" style="line;strokeWidth=0.25;fillColor=none;align=left;verticalAlign=middle;spacingTop=-1;spacingLeft=3;spacingRight=3;rotatable=0;labelPosition=right;points=[];portConstraint=eastwest;" vertex="1" parent="RLe8WdKOfGkBKbHAGbFs-40">
          <mxGeometry y="20" width="170" height="8" as="geometry" />
        </mxCell>
        <mxCell id="RLe8WdKOfGkBKbHAGbFs-43" value="UserInterfacee" style="html=1;align=center;spacing=0;verticalAlign=middle;strokeColor=none;fillColor=none;whiteSpace=wrap;fontStyle=2;fontSize=10;" vertex="1" parent="RLe8WdKOfGkBKbHAGbFs-40">
          <mxGeometry y="28" width="170" height="16" as="geometry" />
        </mxCell>
        <mxCell id="RLe8WdKOfGkBKbHAGbFs-44" value="Signup page&lt;div&gt;Login page&lt;/div&gt;&lt;div&gt;Home page&lt;/div&gt;&lt;div&gt;TrashBin page&lt;/div&gt;&lt;div&gt;Profile&lt;/div&gt;" style="html=1;align=left;spacing=0;spacingLeft=8;verticalAlign=middle;strokeColor=none;fillColor=none;whiteSpace=wrap;" vertex="1" parent="RLe8WdKOfGkBKbHAGbFs-40">
          <mxGeometry y="44" width="170" height="76" as="geometry" />
        </mxCell>
        <mxCell id="RLe8WdKOfGkBKbHAGbFs-46" value="" style="fontStyle=1;align=center;verticalAlign=middle;childLayout=stackLayout;horizontal=1;horizontalStack=0;resizeParent=1;resizeParentMax=0;resizeLast=0;marginBottom=0;" vertex="1" parent="RLe8WdKOfGkBKbHAGbFs-1">
          <mxGeometry x="300" y="190" width="190" height="100" as="geometry" />
        </mxCell>
        <mxCell id="RLe8WdKOfGkBKbHAGbFs-47" value="Block 2" style="html=1;align=center;spacing=0;verticalAlign=middle;strokeColor=none;fillColor=none;whiteSpace=wrap;fontStyle=1;" vertex="1" parent="RLe8WdKOfGkBKbHAGbFs-46">
          <mxGeometry width="190" height="20" as="geometry" />
        </mxCell>
        <mxCell id="RLe8WdKOfGkBKbHAGbFs-48" value="" style="line;strokeWidth=0.25;fillColor=none;align=left;verticalAlign=middle;spacingTop=-1;spacingLeft=3;spacingRight=3;rotatable=0;labelPosition=right;points=[];portConstraint=eastwest;" vertex="1" parent="RLe8WdKOfGkBKbHAGbFs-46">
          <mxGeometry y="20" width="190" height="8" as="geometry" />
        </mxCell>
        <mxCell id="RLe8WdKOfGkBKbHAGbFs-49" value="BackendAPI" style="html=1;align=center;spacing=0;verticalAlign=middle;strokeColor=none;fillColor=none;whiteSpace=wrap;fontStyle=2;fontSize=10;" vertex="1" parent="RLe8WdKOfGkBKbHAGbFs-46">
          <mxGeometry y="28" width="190" height="16" as="geometry" />
        </mxCell>
        <mxCell id="RLe8WdKOfGkBKbHAGbFs-50" value="AuthService&lt;div&gt;stroageSystem&lt;/div&gt;&lt;div&gt;ProfileService&lt;/div&gt;" style="html=1;align=left;spacing=0;spacingLeft=8;verticalAlign=middle;strokeColor=none;fillColor=none;whiteSpace=wrap;" vertex="1" parent="RLe8WdKOfGkBKbHAGbFs-46">
          <mxGeometry y="44" width="190" height="56" as="geometry" />
        </mxCell>
        <mxCell id="RLe8WdKOfGkBKbHAGbFs-51" value="" style="fontStyle=1;align=center;verticalAlign=middle;childLayout=stackLayout;horizontal=1;horizontalStack=0;resizeParent=1;resizeParentMax=0;resizeLast=0;marginBottom=0;" vertex="1" parent="RLe8WdKOfGkBKbHAGbFs-1">
          <mxGeometry x="580" y="190" width="190" height="100" as="geometry" />
        </mxCell>
        <mxCell id="RLe8WdKOfGkBKbHAGbFs-52" value="Block 3" style="html=1;align=center;spacing=0;verticalAlign=middle;strokeColor=none;fillColor=none;whiteSpace=wrap;fontStyle=1;" vertex="1" parent="RLe8WdKOfGkBKbHAGbFs-51">
          <mxGeometry width="190" height="20" as="geometry" />
        </mxCell>
        <mxCell id="RLe8WdKOfGkBKbHAGbFs-53" value="" style="line;strokeWidth=0.25;fillColor=none;align=left;verticalAlign=middle;spacingTop=-1;spacingLeft=3;spacingRight=3;rotatable=0;labelPosition=right;points=[];portConstraint=eastwest;" vertex="1" parent="RLe8WdKOfGkBKbHAGbFs-51">
          <mxGeometry y="20" width="190" height="8" as="geometry" />
        </mxCell>
        <mxCell id="RLe8WdKOfGkBKbHAGbFs-54" value="Database" style="html=1;align=center;spacing=0;verticalAlign=middle;strokeColor=none;fillColor=none;whiteSpace=wrap;fontStyle=2;fontSize=10;" vertex="1" parent="RLe8WdKOfGkBKbHAGbFs-51">
          <mxGeometry y="28" width="190" height="16" as="geometry" />
        </mxCell>
        <mxCell id="RLe8WdKOfGkBKbHAGbFs-55" value="User collection&lt;div&gt;Uploaded files collection&lt;/div&gt;&lt;div&gt;deleted files&lt;/div&gt;" style="html=1;align=left;spacing=0;spacingLeft=8;verticalAlign=middle;strokeColor=none;fillColor=none;whiteSpace=wrap;" vertex="1" parent="RLe8WdKOfGkBKbHAGbFs-51">
          <mxGeometry y="44" width="190" height="56" as="geometry" />
        </mxCell>
        <mxCell id="RLe8WdKOfGkBKbHAGbFs-56" value="&amp;lt;&amp;lt;depends on&amp;gt;&amp;gt;" style="edgeStyle=none;html=1;endArrow=open;endSize=12;dashed=1;verticalAlign=bottom;rounded=0;exitX=1;exitY=0.25;exitDx=0;exitDy=0;entryX=0;entryY=0.25;entryDx=0;entryDy=0;" edge="1" parent="RLe8WdKOfGkBKbHAGbFs-1" source="RLe8WdKOfGkBKbHAGbFs-50" target="RLe8WdKOfGkBKbHAGbFs-55">
          <mxGeometry width="160" relative="1" as="geometry">
            <mxPoint x="540" y="440" as="sourcePoint" />
            <mxPoint x="700" y="440" as="targetPoint" />
          </mxGeometry>
        </mxCell>
        <mxCell id="RLe8WdKOfGkBKbHAGbFs-57" value="&amp;lt;&amp;lt;depends on&amp;gt;&amp;gt;" style="edgeStyle=none;html=1;endArrow=open;endSize=12;dashed=1;verticalAlign=bottom;rounded=0;entryX=1;entryY=0.25;entryDx=0;entryDy=0;exitX=0.012;exitY=0.137;exitDx=0;exitDy=0;exitPerimeter=0;" edge="1" parent="RLe8WdKOfGkBKbHAGbFs-1" source="RLe8WdKOfGkBKbHAGbFs-50" target="RLe8WdKOfGkBKbHAGbFs-44">
          <mxGeometry width="160" relative="1" as="geometry">
            <mxPoint x="341" y="233" as="sourcePoint" />
            <mxPoint x="370" y="350" as="targetPoint" />
          </mxGeometry>
        </mxCell>
        <mxCell id="RLe8WdKOfGkBKbHAGbFs-68" value="" style="fontStyle=1;align=center;verticalAlign=middle;childLayout=stackLayout;horizontal=1;horizontalStack=0;resizeParent=1;resizeParentMax=0;resizeLast=0;marginBottom=0;" vertex="1" parent="RLe8WdKOfGkBKbHAGbFs-1">
          <mxGeometry x="410" y="620" width="190" height="50" as="geometry" />
        </mxCell>
        <mxCell id="RLe8WdKOfGkBKbHAGbFs-69" value="Block 6" style="html=1;align=center;spacing=0;verticalAlign=middle;strokeColor=none;fillColor=none;whiteSpace=wrap;fontStyle=1;" vertex="1" parent="RLe8WdKOfGkBKbHAGbFs-68">
          <mxGeometry width="190" height="20" as="geometry" />
        </mxCell>
        <mxCell id="RLe8WdKOfGkBKbHAGbFs-70" value="" style="line;strokeWidth=0.25;fillColor=none;align=left;verticalAlign=middle;spacingTop=-1;spacingLeft=3;spacingRight=3;rotatable=0;labelPosition=right;points=[];portConstraint=eastwest;" vertex="1" parent="RLe8WdKOfGkBKbHAGbFs-68">
          <mxGeometry y="20" width="190" height="8" as="geometry" />
        </mxCell>
        <mxCell id="RLe8WdKOfGkBKbHAGbFs-71" value="Profile" style="html=1;align=center;spacing=0;verticalAlign=middle;strokeColor=none;fillColor=none;whiteSpace=wrap;fontStyle=2;fontSize=10;" vertex="1" parent="RLe8WdKOfGkBKbHAGbFs-68">
          <mxGeometry y="28" width="190" height="22" as="geometry" />
        </mxCell>
        <mxCell id="RLe8WdKOfGkBKbHAGbFs-63" value="" style="fontStyle=1;align=center;verticalAlign=middle;childLayout=stackLayout;horizontal=1;horizontalStack=0;resizeParent=1;resizeParentMax=0;resizeLast=0;marginBottom=0;" vertex="1" parent="RLe8WdKOfGkBKbHAGbFs-1">
          <mxGeometry x="270" y="510" width="190" height="100" as="geometry" />
        </mxCell>
        <mxCell id="RLe8WdKOfGkBKbHAGbFs-64" value="Block 5" style="html=1;align=center;spacing=0;verticalAlign=middle;strokeColor=none;fillColor=none;whiteSpace=wrap;fontStyle=1;" vertex="1" parent="RLe8WdKOfGkBKbHAGbFs-63">
          <mxGeometry width="190" height="20" as="geometry" />
        </mxCell>
        <mxCell id="RLe8WdKOfGkBKbHAGbFs-65" value="" style="line;strokeWidth=0.25;fillColor=none;align=left;verticalAlign=middle;spacingTop=-1;spacingLeft=3;spacingRight=3;rotatable=0;labelPosition=right;points=[];portConstraint=eastwest;" vertex="1" parent="RLe8WdKOfGkBKbHAGbFs-63">
          <mxGeometry y="20" width="190" height="8" as="geometry" />
        </mxCell>
        <mxCell id="RLe8WdKOfGkBKbHAGbFs-66" value="Stroagesystem" style="html=1;align=center;spacing=0;verticalAlign=middle;strokeColor=none;fillColor=none;whiteSpace=wrap;fontStyle=2;fontSize=10;" vertex="1" parent="RLe8WdKOfGkBKbHAGbFs-63">
          <mxGeometry y="28" width="190" height="16" as="geometry" />
        </mxCell>
        <mxCell id="RLe8WdKOfGkBKbHAGbFs-67" value="Upload documents&lt;div&gt;Share documents&lt;/div&gt;&lt;div&gt;delete documents&lt;/div&gt;" style="html=1;align=left;spacing=0;spacingLeft=8;verticalAlign=middle;strokeColor=none;fillColor=none;whiteSpace=wrap;" vertex="1" parent="RLe8WdKOfGkBKbHAGbFs-63">
          <mxGeometry y="44" width="190" height="56" as="geometry" />
        </mxCell>
        <mxCell id="RLe8WdKOfGkBKbHAGbFs-58" value="" style="fontStyle=1;align=center;verticalAlign=middle;childLayout=stackLayout;horizontal=1;horizontalStack=0;resizeParent=1;resizeParentMax=0;resizeLast=0;marginBottom=0;" vertex="1" parent="RLe8WdKOfGkBKbHAGbFs-1">
          <mxGeometry x="20" y="480" width="190" height="100" as="geometry" />
        </mxCell>
        <mxCell id="RLe8WdKOfGkBKbHAGbFs-59" value="Block 4" style="html=1;align=center;spacing=0;verticalAlign=middle;strokeColor=none;fillColor=none;whiteSpace=wrap;fontStyle=1;" vertex="1" parent="RLe8WdKOfGkBKbHAGbFs-58">
          <mxGeometry width="190" height="20" as="geometry" />
        </mxCell>
        <mxCell id="RLe8WdKOfGkBKbHAGbFs-60" value="" style="line;strokeWidth=0.25;fillColor=none;align=left;verticalAlign=middle;spacingTop=-1;spacingLeft=3;spacingRight=3;rotatable=0;labelPosition=right;points=[];portConstraint=eastwest;" vertex="1" parent="RLe8WdKOfGkBKbHAGbFs-58">
          <mxGeometry y="20" width="190" height="8" as="geometry" />
        </mxCell>
        <mxCell id="RLe8WdKOfGkBKbHAGbFs-61" value="AuthService" style="html=1;align=center;spacing=0;verticalAlign=middle;strokeColor=none;fillColor=none;whiteSpace=wrap;fontStyle=2;fontSize=10;" vertex="1" parent="RLe8WdKOfGkBKbHAGbFs-58">
          <mxGeometry y="28" width="190" height="16" as="geometry" />
        </mxCell>
        <mxCell id="RLe8WdKOfGkBKbHAGbFs-62" value="TokenGenerator&lt;br&gt;&lt;div&gt;SessionManager&lt;/div&gt;&lt;div&gt;VaildationEngine&lt;/div&gt;" style="html=1;align=left;spacing=0;spacingLeft=8;verticalAlign=middle;strokeColor=none;fillColor=none;whiteSpace=wrap;" vertex="1" parent="RLe8WdKOfGkBKbHAGbFs-58">
          <mxGeometry y="44" width="190" height="56" as="geometry" />
        </mxCell>
        <mxCell id="RLe8WdKOfGkBKbHAGbFs-89" value="" style="strokeColor=inherit;fillColor=inherit;gradientColor=inherit;align=right;html=1;verticalAlign=bottom;endArrow=none;startArrow=diamondThin;startSize=14;startFill=1;edgeStyle=none;endFill=0;labelBackgroundColor=none;rounded=0;entryX=0.5;entryY=0;entryDx=0;entryDy=0;exitX=0.128;exitY=0.97;exitDx=0;exitDy=0;exitPerimeter=0;" edge="1" parent="RLe8WdKOfGkBKbHAGbFs-1" source="RLe8WdKOfGkBKbHAGbFs-50" target="RLe8WdKOfGkBKbHAGbFs-59">
          <mxGeometry x="1" relative="1" as="geometry">
            <mxPoint x="1142.0014285714285" y="110" as="sourcePoint" />
            <mxPoint x="940" y="200" as="targetPoint" />
            <Array as="points" />
          </mxGeometry>
        </mxCell>
        <mxCell id="RLe8WdKOfGkBKbHAGbFs-90" value="1" style="resizable=0;html=1;align=left;verticalAlign=top;labelBackgroundColor=none;fontSize=10" connectable="0" vertex="1" parent="RLe8WdKOfGkBKbHAGbFs-89">
          <mxGeometry x="-1" relative="1" as="geometry" />
        </mxCell>
        <mxCell id="RLe8WdKOfGkBKbHAGbFs-91" value="" style="resizable=0;html=1;align=right;verticalAlign=top;labelBackgroundColor=none;fontSize=10" connectable="0" vertex="1" parent="RLe8WdKOfGkBKbHAGbFs-89">
          <mxGeometry x="1" relative="1" as="geometry" />
        </mxCell>
        <mxCell id="RLe8WdKOfGkBKbHAGbFs-92" value="Composition/Part1" style="edgeLabel;html=1;align=center;verticalAlign=middle;resizable=0;points=[];" vertex="1" connectable="0" parent="RLe8WdKOfGkBKbHAGbFs-89">
          <mxGeometry x="0.0803" y="4" relative="1" as="geometry">
            <mxPoint as="offset" />
          </mxGeometry>
        </mxCell>
        <mxCell id="RLe8WdKOfGkBKbHAGbFs-85" value="" style="strokeColor=inherit;fillColor=inherit;gradientColor=inherit;align=right;html=1;verticalAlign=bottom;endArrow=none;startArrow=diamondThin;startSize=14;startFill=1;edgeStyle=none;endFill=0;labelBackgroundColor=none;rounded=0;entryX=0.5;entryY=0;entryDx=0;entryDy=0;exitX=0.5;exitY=1;exitDx=0;exitDy=0;" edge="1" parent="RLe8WdKOfGkBKbHAGbFs-1" source="RLe8WdKOfGkBKbHAGbFs-50" target="RLe8WdKOfGkBKbHAGbFs-64">
          <mxGeometry x="1" relative="1" as="geometry">
            <mxPoint x="1122.0014285714285" y="150" as="sourcePoint" />
            <mxPoint x="920" y="240" as="targetPoint" />
            <Array as="points" />
          </mxGeometry>
        </mxCell>
        <mxCell id="RLe8WdKOfGkBKbHAGbFs-86" value="1" style="resizable=0;html=1;align=left;verticalAlign=top;labelBackgroundColor=none;fontSize=10" connectable="0" vertex="1" parent="RLe8WdKOfGkBKbHAGbFs-85">
          <mxGeometry x="-1" relative="1" as="geometry" />
        </mxCell>
        <mxCell id="RLe8WdKOfGkBKbHAGbFs-87" value="" style="resizable=0;html=1;align=right;verticalAlign=top;labelBackgroundColor=none;fontSize=10" connectable="0" vertex="1" parent="RLe8WdKOfGkBKbHAGbFs-85">
          <mxGeometry x="1" relative="1" as="geometry" />
        </mxCell>
        <mxCell id="RLe8WdKOfGkBKbHAGbFs-88" value="Composition/Part1" style="edgeLabel;html=1;align=center;verticalAlign=middle;resizable=0;points=[];" vertex="1" connectable="0" parent="RLe8WdKOfGkBKbHAGbFs-85">
          <mxGeometry x="0.0803" y="4" relative="1" as="geometry">
            <mxPoint as="offset" />
          </mxGeometry>
        </mxCell>
        <mxCell id="RLe8WdKOfGkBKbHAGbFs-81" value="" style="strokeColor=inherit;fillColor=inherit;gradientColor=inherit;align=right;html=1;verticalAlign=bottom;endArrow=none;startArrow=diamondThin;startSize=14;startFill=1;edgeStyle=none;endFill=0;labelBackgroundColor=none;rounded=0;entryX=0.5;entryY=0;entryDx=0;entryDy=0;exitX=0.75;exitY=1;exitDx=0;exitDy=0;" edge="1" parent="RLe8WdKOfGkBKbHAGbFs-1" source="RLe8WdKOfGkBKbHAGbFs-50" target="RLe8WdKOfGkBKbHAGbFs-69">
          <mxGeometry x="1" relative="1" as="geometry">
            <mxPoint x="1112.0014285714285" y="210" as="sourcePoint" />
            <mxPoint x="910" y="300" as="targetPoint" />
            <Array as="points" />
          </mxGeometry>
        </mxCell>
        <mxCell id="RLe8WdKOfGkBKbHAGbFs-82" value="1" style="resizable=0;html=1;align=left;verticalAlign=top;labelBackgroundColor=none;fontSize=10" connectable="0" vertex="1" parent="RLe8WdKOfGkBKbHAGbFs-81">
          <mxGeometry x="-1" relative="1" as="geometry" />
        </mxCell>
        <mxCell id="RLe8WdKOfGkBKbHAGbFs-83" value="" style="resizable=0;html=1;align=right;verticalAlign=top;labelBackgroundColor=none;fontSize=10" connectable="0" vertex="1" parent="RLe8WdKOfGkBKbHAGbFs-81">
          <mxGeometry x="1" relative="1" as="geometry" />
        </mxCell>
        <mxCell id="RLe8WdKOfGkBKbHAGbFs-84" value="Composition/Part1" style="edgeLabel;html=1;align=center;verticalAlign=middle;resizable=0;points=[];" vertex="1" connectable="0" parent="RLe8WdKOfGkBKbHAGbFs-81">
          <mxGeometry x="0.0803" y="4" relative="1" as="geometry">
            <mxPoint as="offset" />
          </mxGeometry>
        </mxCell>
        <mxCell id="RLe8WdKOfGkBKbHAGbFs-77" value="" style="strokeColor=inherit;fillColor=inherit;gradientColor=inherit;align=right;html=1;verticalAlign=bottom;endArrow=none;startArrow=diamondThin;startSize=14;startFill=1;edgeStyle=none;endFill=0;labelBackgroundColor=none;rounded=0;entryX=0.5;entryY=0;entryDx=0;entryDy=0;exitX=0.25;exitY=1;exitDx=0;exitDy=0;" edge="1" parent="RLe8WdKOfGkBKbHAGbFs-1" source="RLe8WdKOfGkBKbHAGbFs-36" target="RLe8WdKOfGkBKbHAGbFs-47">
          <mxGeometry x="1" relative="1" as="geometry">
            <mxPoint x="1082.0014285714285" y="280" as="sourcePoint" />
            <mxPoint x="880" y="370" as="targetPoint" />
            <Array as="points" />
          </mxGeometry>
        </mxCell>
        <mxCell id="RLe8WdKOfGkBKbHAGbFs-78" value="1" style="resizable=0;html=1;align=left;verticalAlign=top;labelBackgroundColor=none;fontSize=10" connectable="0" vertex="1" parent="RLe8WdKOfGkBKbHAGbFs-77">
          <mxGeometry x="-1" relative="1" as="geometry" />
        </mxCell>
        <mxCell id="RLe8WdKOfGkBKbHAGbFs-79" value="" style="resizable=0;html=1;align=right;verticalAlign=top;labelBackgroundColor=none;fontSize=10" connectable="0" vertex="1" parent="RLe8WdKOfGkBKbHAGbFs-77">
          <mxGeometry x="1" relative="1" as="geometry" />
        </mxCell>
        <mxCell id="RLe8WdKOfGkBKbHAGbFs-80" value="Composition/Part1" style="edgeLabel;html=1;align=center;verticalAlign=middle;resizable=0;points=[];" vertex="1" connectable="0" parent="RLe8WdKOfGkBKbHAGbFs-77">
          <mxGeometry x="0.0803" y="4" relative="1" as="geometry">
            <mxPoint as="offset" />
          </mxGeometry>
        </mxCell>
        <mxCell id="RLe8WdKOfGkBKbHAGbFs-73" value="" style="strokeColor=inherit;fillColor=inherit;gradientColor=inherit;align=right;html=1;verticalAlign=bottom;endArrow=none;startArrow=diamondThin;startSize=14;startFill=1;edgeStyle=none;endFill=0;labelBackgroundColor=none;rounded=0;entryX=0.25;entryY=0;entryDx=0;entryDy=0;exitX=1;exitY=0.5;exitDx=0;exitDy=0;" edge="1" parent="RLe8WdKOfGkBKbHAGbFs-1" source="RLe8WdKOfGkBKbHAGbFs-36" target="RLe8WdKOfGkBKbHAGbFs-52">
          <mxGeometry x="1" relative="1" as="geometry">
            <mxPoint x="1062.0014285714285" y="390" as="sourcePoint" />
            <mxPoint x="860" y="480" as="targetPoint" />
            <Array as="points" />
          </mxGeometry>
        </mxCell>
        <mxCell id="RLe8WdKOfGkBKbHAGbFs-74" value="1" style="resizable=0;html=1;align=left;verticalAlign=top;labelBackgroundColor=none;fontSize=10" connectable="0" vertex="1" parent="RLe8WdKOfGkBKbHAGbFs-73">
          <mxGeometry x="-1" relative="1" as="geometry" />
        </mxCell>
        <mxCell id="RLe8WdKOfGkBKbHAGbFs-75" value="" style="resizable=0;html=1;align=right;verticalAlign=top;labelBackgroundColor=none;fontSize=10" connectable="0" vertex="1" parent="RLe8WdKOfGkBKbHAGbFs-73">
          <mxGeometry x="1" relative="1" as="geometry" />
        </mxCell>
        <mxCell id="RLe8WdKOfGkBKbHAGbFs-76" value="Composition/Part1" style="edgeLabel;html=1;align=center;verticalAlign=middle;resizable=0;points=[];" vertex="1" connectable="0" parent="RLe8WdKOfGkBKbHAGbFs-73">
          <mxGeometry x="0.0803" y="4" relative="1" as="geometry">
            <mxPoint as="offset" />
          </mxGeometry>
        </mxCell>
        <mxCell id="RLe8WdKOfGkBKbHAGbFs-94" value="&amp;lt;&amp;lt;depends on&amp;gt;&amp;gt;" style="edgeStyle=none;html=1;endArrow=open;endSize=12;dashed=1;verticalAlign=bottom;rounded=0;entryX=0.5;entryY=1;entryDx=0;entryDy=0;exitX=0;exitY=0.5;exitDx=0;exitDy=0;" edge="1" parent="RLe8WdKOfGkBKbHAGbFs-1" source="RLe8WdKOfGkBKbHAGbFs-71" target="RLe8WdKOfGkBKbHAGbFs-62">
          <mxGeometry width="160" relative="1" as="geometry">
            <mxPoint x="892" y="509" as="sourcePoint" />
            <mxPoint x="790" y="500" as="targetPoint" />
            <Array as="points">
              <mxPoint x="115" y="660" />
            </Array>
          </mxGeometry>
        </mxCell>
        <mxCell id="RLe8WdKOfGkBKbHAGbFs-93" value="&amp;lt;&amp;lt;depends on&amp;gt;&amp;gt;" style="edgeStyle=none;html=1;endArrow=open;endSize=12;dashed=1;verticalAlign=bottom;rounded=0;entryX=0.75;entryY=1;entryDx=0;entryDy=0;exitX=0;exitY=1;exitDx=0;exitDy=0;" edge="1" parent="RLe8WdKOfGkBKbHAGbFs-1" source="RLe8WdKOfGkBKbHAGbFs-67" target="RLe8WdKOfGkBKbHAGbFs-62">
          <mxGeometry width="160" relative="1" as="geometry">
            <mxPoint x="892" y="569" as="sourcePoint" />
            <mxPoint x="790" y="560" as="targetPoint" />
            <Array as="points">
              <mxPoint x="163" y="610" />
            </Array>
          </mxGeometry>
        </mxCell>
        <mxCell id="RLe8WdKOfGkBKbHAGbFs-95" value="" style="fontStyle=1;align=center;verticalAlign=middle;childLayout=stackLayout;horizontal=1;horizontalStack=0;resizeParent=1;resizeParentMax=0;resizeLast=0;marginBottom=0;" vertex="1" parent="RLe8WdKOfGkBKbHAGbFs-1">
          <mxGeometry x="580" y="320" width="190" height="74" as="geometry" />
        </mxCell>
        <mxCell id="RLe8WdKOfGkBKbHAGbFs-96" value="Block 7" style="html=1;align=center;spacing=0;verticalAlign=middle;strokeColor=none;fillColor=none;whiteSpace=wrap;fontStyle=1;" vertex="1" parent="RLe8WdKOfGkBKbHAGbFs-95">
          <mxGeometry width="190" height="20" as="geometry" />
        </mxCell>
        <mxCell id="RLe8WdKOfGkBKbHAGbFs-97" value="" style="line;strokeWidth=0.25;fillColor=none;align=left;verticalAlign=middle;spacingTop=-1;spacingLeft=3;spacingRight=3;rotatable=0;labelPosition=right;points=[];portConstraint=eastwest;" vertex="1" parent="RLe8WdKOfGkBKbHAGbFs-95">
          <mxGeometry y="20" width="190" height="8" as="geometry" />
        </mxCell>
        <mxCell id="RLe8WdKOfGkBKbHAGbFs-98" value="Notification" style="html=1;align=center;spacing=0;verticalAlign=middle;strokeColor=none;fillColor=none;whiteSpace=wrap;fontStyle=2;fontSize=10;" vertex="1" parent="RLe8WdKOfGkBKbHAGbFs-95">
          <mxGeometry y="28" width="190" height="16" as="geometry" />
        </mxCell>
        <mxCell id="RLe8WdKOfGkBKbHAGbFs-99" value="Error&amp;nbsp; login message" style="html=1;align=left;spacing=0;spacingLeft=8;verticalAlign=middle;strokeColor=none;fillColor=none;whiteSpace=wrap;" vertex="1" parent="RLe8WdKOfGkBKbHAGbFs-95">
          <mxGeometry y="44" width="190" height="30" as="geometry" />
        </mxCell>
        <mxCell id="RLe8WdKOfGkBKbHAGbFs-100" value="&amp;lt;&amp;lt;uses&amp;gt;&amp;gt;" style="edgeStyle=none;html=1;endArrow=open;endSize=12;dashed=1;verticalAlign=bottom;rounded=0;exitX=0.5;exitY=1;exitDx=0;exitDy=0;entryX=0;entryY=0.25;entryDx=0;entryDy=0;" edge="1" parent="RLe8WdKOfGkBKbHAGbFs-1" source="RLe8WdKOfGkBKbHAGbFs-44" target="RLe8WdKOfGkBKbHAGbFs-99">
          <mxGeometry width="160" relative="1" as="geometry">
            <mxPoint x="110" y="350" as="sourcePoint" />
            <mxPoint x="200" y="350" as="targetPoint" />
            <Array as="points">
              <mxPoint x="115" y="372" />
            </Array>
          </mxGeometry>
        </mxCell>
        <mxCell id="RLe8WdKOfGkBKbHAGbFs-106" value="" style="strokeColor=inherit;fillColor=inherit;gradientColor=inherit;align=right;html=1;verticalAlign=bottom;endArrow=none;startArrow=diamondThin;startSize=14;startFill=1;edgeStyle=none;endFill=0;labelBackgroundColor=none;rounded=0;entryX=1;entryY=0.5;entryDx=0;entryDy=0;exitX=1;exitY=0.25;exitDx=0;exitDy=0;" edge="1" parent="RLe8WdKOfGkBKbHAGbFs-1" source="RLe8WdKOfGkBKbHAGbFs-35" target="RLe8WdKOfGkBKbHAGbFs-98">
          <mxGeometry x="1" relative="1" as="geometry">
            <mxPoint x="890" y="330" as="sourcePoint" />
            <mxPoint x="938" y="410" as="targetPoint" />
            <Array as="points">
              <mxPoint x="850" y="71" />
              <mxPoint x="850" y="356" />
            </Array>
          </mxGeometry>
        </mxCell>
        <mxCell id="RLe8WdKOfGkBKbHAGbFs-107" value="1" style="resizable=0;html=1;align=left;verticalAlign=top;labelBackgroundColor=none;fontSize=10" connectable="0" vertex="1" parent="RLe8WdKOfGkBKbHAGbFs-106">
          <mxGeometry x="-1" relative="1" as="geometry" />
        </mxCell>
        <mxCell id="RLe8WdKOfGkBKbHAGbFs-108" value="" style="resizable=0;html=1;align=right;verticalAlign=top;labelBackgroundColor=none;fontSize=10" connectable="0" vertex="1" parent="RLe8WdKOfGkBKbHAGbFs-106">
          <mxGeometry x="1" relative="1" as="geometry" />
        </mxCell>
        <mxCell id="RLe8WdKOfGkBKbHAGbFs-109" value="Composition/Part1" style="edgeLabel;html=1;align=center;verticalAlign=middle;resizable=0;points=[];" vertex="1" connectable="0" parent="RLe8WdKOfGkBKbHAGbFs-106">
          <mxGeometry x="0.0803" y="4" relative="1" as="geometry">
            <mxPoint as="offset" />
          </mxGeometry>
        </mxCell>
        <mxCell id="RLe8WdKOfGkBKbHAGbFs-101" value="" style="fontStyle=1;align=center;verticalAlign=middle;childLayout=stackLayout;horizontal=1;horizontalStack=0;resizeParent=1;resizeParentMax=0;resizeLast=0;marginBottom=0;" vertex="1" parent="1">
          <mxGeometry x="732" y="470" width="190" height="74" as="geometry" />
        </mxCell>
        <mxCell id="RLe8WdKOfGkBKbHAGbFs-102" value="Block 8" style="html=1;align=center;spacing=0;verticalAlign=middle;strokeColor=none;fillColor=none;whiteSpace=wrap;fontStyle=1;" vertex="1" parent="RLe8WdKOfGkBKbHAGbFs-101">
          <mxGeometry width="190" height="20" as="geometry" />
        </mxCell>
        <mxCell id="RLe8WdKOfGkBKbHAGbFs-103" value="" style="line;strokeWidth=0.25;fillColor=none;align=left;verticalAlign=middle;spacingTop=-1;spacingLeft=3;spacingRight=3;rotatable=0;labelPosition=right;points=[];portConstraint=eastwest;" vertex="1" parent="RLe8WdKOfGkBKbHAGbFs-101">
          <mxGeometry y="20" width="190" height="8" as="geometry" />
        </mxCell>
        <mxCell id="RLe8WdKOfGkBKbHAGbFs-104" value="MiddleWare" style="html=1;align=center;spacing=0;verticalAlign=middle;strokeColor=none;fillColor=none;whiteSpace=wrap;fontStyle=2;fontSize=10;" vertex="1" parent="RLe8WdKOfGkBKbHAGbFs-101">
          <mxGeometry y="28" width="190" height="16" as="geometry" />
        </mxCell>
        <mxCell id="RLe8WdKOfGkBKbHAGbFs-105" value="InputVaildtor&lt;div&gt;AuthMiddleware&lt;/div&gt;" style="html=1;align=left;spacing=0;spacingLeft=8;verticalAlign=middle;strokeColor=none;fillColor=none;whiteSpace=wrap;" vertex="1" parent="RLe8WdKOfGkBKbHAGbFs-101">
          <mxGeometry y="44" width="190" height="30" as="geometry" />
        </mxCell>
        <mxCell id="RLe8WdKOfGkBKbHAGbFs-110" value="" style="strokeColor=inherit;fillColor=inherit;gradientColor=inherit;align=right;html=1;verticalAlign=bottom;endArrow=none;startArrow=diamondThin;startSize=14;startFill=1;edgeStyle=none;endFill=0;labelBackgroundColor=none;rounded=0;entryX=1;entryY=0.5;entryDx=0;entryDy=0;exitX=1;exitY=0.75;exitDx=0;exitDy=0;" edge="1" parent="1" source="RLe8WdKOfGkBKbHAGbFs-32" target="RLe8WdKOfGkBKbHAGbFs-105">
          <mxGeometry x="1" relative="1" as="geometry">
            <mxPoint x="1130" y="600" as="sourcePoint" />
            <mxPoint x="1178" y="680" as="targetPoint" />
            <Array as="points">
              <mxPoint x="1030" y="55" />
              <mxPoint x="1030" y="529" />
            </Array>
          </mxGeometry>
        </mxCell>
        <mxCell id="RLe8WdKOfGkBKbHAGbFs-111" value="1" style="resizable=0;html=1;align=left;verticalAlign=top;labelBackgroundColor=none;fontSize=10" connectable="0" vertex="1" parent="RLe8WdKOfGkBKbHAGbFs-110">
          <mxGeometry x="-1" relative="1" as="geometry" />
        </mxCell>
        <mxCell id="RLe8WdKOfGkBKbHAGbFs-112" value="" style="resizable=0;html=1;align=right;verticalAlign=top;labelBackgroundColor=none;fontSize=10" connectable="0" vertex="1" parent="RLe8WdKOfGkBKbHAGbFs-110">
          <mxGeometry x="1" relative="1" as="geometry" />
        </mxCell>
        <mxCell id="RLe8WdKOfGkBKbHAGbFs-113" value="Composition/Part1" style="edgeLabel;html=1;align=center;verticalAlign=middle;resizable=0;points=[];" vertex="1" connectable="0" parent="RLe8WdKOfGkBKbHAGbFs-110">
          <mxGeometry x="0.0803" y="4" relative="1" as="geometry">
            <mxPoint as="offset" />
          </mxGeometry>
        </mxCell>
        <mxCell id="RLe8WdKOfGkBKbHAGbFs-115" value="&amp;lt;&amp;lt;uses&amp;gt;&amp;gt;" style="edgeStyle=none;html=1;endArrow=open;endSize=12;dashed=1;verticalAlign=bottom;rounded=0;exitX=1;exitY=0.5;exitDx=0;exitDy=0;entryX=0;entryY=0;entryDx=0;entryDy=0;" edge="1" parent="1" source="RLe8WdKOfGkBKbHAGbFs-59" target="RLe8WdKOfGkBKbHAGbFs-105">
          <mxGeometry width="160" relative="1" as="geometry">
            <mxPoint x="770" y="600" as="sourcePoint" />
            <mxPoint x="1235" y="682" as="targetPoint" />
            <Array as="points" />
          </mxGeometry>
        </mxCell>
      </root>
    </mxGraphModel>
  </diagram>
</mxfile>
